<svg width="33" height="34" viewBox="0 0 33 34" fill="none" xmlns="http://www.w3.org/2000/svg">
    <path d="M13.1585 8.93884H19.1207C21.3921 8.93884 23.2375 10.9639 23.2375 13.4564V19.999C23.2375 21.1971 22.8038 22.3461 22.0318 23.1933C21.2597 24.0405 20.2126 24.5165 19.1207 24.5165H13.1585C10.8871 24.5165 9.04166 22.4914 9.04166 19.999V13.4564C9.04166 12.2582 9.47539 11.1092 10.2474 10.262C11.0195 9.41479 12.0666 8.93884 13.1585 8.93884ZM13.0165 10.4966C12.3388 10.4966 11.6889 10.792 11.2097 11.3179C10.7305 11.8437 10.4612 12.5569 10.4612 13.3006V20.1547C10.4612 21.7047 11.604 22.9587 13.0165 22.9587H19.2627C19.9404 22.9587 20.5903 22.6633 21.0695 22.1374C21.5487 21.6116 21.8179 20.8984 21.8179 20.1547V13.3006C21.8179 11.7506 20.6752 10.4966 19.2627 10.4966H13.0165ZM19.866 11.6649C20.1013 11.6649 20.327 11.7675 20.4934 11.9501C20.6598 12.1327 20.7533 12.3803 20.7533 12.6385C20.7533 12.8967 20.6598 13.1444 20.4934 13.327C20.327 13.5096 20.1013 13.6121 19.866 13.6121C19.6307 13.6121 19.405 13.5096 19.2386 13.327C19.0722 13.1444 18.9788 12.8967 18.9788 12.6385C18.9788 12.3803 19.0722 12.1327 19.2386 11.9501C19.405 11.7675 19.6307 11.6649 19.866 11.6649ZM16.1396 12.8332C17.0808 12.8332 17.9835 13.2436 18.6491 13.9739C19.3147 14.7042 19.6886 15.6948 19.6886 16.7277C19.6886 17.7605 19.3147 18.7511 18.6491 19.4814C17.9835 20.2118 17.0808 20.6221 16.1396 20.6221C15.1983 20.6221 14.2957 20.2118 13.6301 19.4814C12.9645 18.7511 12.5906 17.7605 12.5906 16.7277C12.5906 15.6948 12.9645 14.7042 13.6301 13.9739C14.2957 13.2436 15.1983 12.8332 16.1396 12.8332ZM16.1396 14.391C15.5748 14.391 15.0332 14.6372 14.6339 15.0754C14.2346 15.5136 14.0102 16.1079 14.0102 16.7277C14.0102 17.3474 14.2346 17.9417 14.6339 18.3799C15.0332 18.8181 15.5748 19.0643 16.1396 19.0643C16.7043 19.0643 17.246 18.8181 17.6453 18.3799C18.0446 17.9417 18.269 17.3474 18.269 16.7277C18.269 16.1079 18.0446 15.5136 17.6453 15.0754C17.246 14.6372 16.7043 14.391 16.1396 14.391Z" fill="black"/>
    <rect x="0.491091" y="0.388247" width="31.2972" height="32.6789" rx="15.6486" stroke="black" stroke-width="0.743535"/>
</svg>
