<svg width="21" height="22" viewBox="0 0 21 22" fill="none" xmlns="http://www.w3.org/2000/svg">
    <path d="M8.38334 5.72778H12.2108C13.6689 5.72778 14.8536 7.02778 14.8536 8.62778V12.8278C14.8536 13.5969 14.5751 14.3345 14.0795 14.8784C13.5839 15.4222 12.9117 15.7278 12.2108 15.7278H8.38334C6.92526 15.7278 5.74057 14.4278 5.74057 12.8278V8.62778C5.74057 7.85865 6.019 7.12103 6.51462 6.57717C7.01023 6.03332 7.68243 5.72778 8.38334 5.72778ZM8.29221 6.72778C7.85716 6.72778 7.43994 6.91742 7.13231 7.25499C6.82469 7.59256 6.65187 8.05039 6.65187 8.52778V12.9278C6.65187 13.9228 7.38546 14.7278 8.29221 14.7278H12.3019C12.737 14.7278 13.1542 14.5381 13.4618 14.2006C13.7694 13.863 13.9423 13.4052 13.9423 12.9278V8.52778C13.9423 7.53278 13.2087 6.72778 12.3019 6.72778H8.29221ZM12.6892 7.47778C12.8403 7.47778 12.9852 7.54363 13.092 7.66084C13.1988 7.77805 13.2588 7.93702 13.2588 8.10278C13.2588 8.26854 13.1988 8.42751 13.092 8.54472C12.9852 8.66193 12.8403 8.72778 12.6892 8.72778C12.5382 8.72778 12.3933 8.66193 12.2865 8.54472C12.1797 8.42751 12.1197 8.26854 12.1197 8.10278C12.1197 7.93702 12.1797 7.77805 12.2865 7.66084C12.3933 7.54363 12.5382 7.47778 12.6892 7.47778ZM10.2971 8.22778C10.9013 8.22778 11.4808 8.49117 11.908 8.96001C12.3353 9.42885 12.5753 10.0647 12.5753 10.7278C12.5753 11.3908 12.3353 12.0267 11.908 12.4955C11.4808 12.9644 10.9013 13.2278 10.2971 13.2278C9.69284 13.2278 9.11335 12.9644 8.6861 12.4955C8.25885 12.0267 8.01882 11.3908 8.01882 10.7278C8.01882 10.0647 8.25885 9.42885 8.6861 8.96001C9.11335 8.49117 9.69284 8.22778 10.2971 8.22778ZM10.2971 9.22778C9.93453 9.22778 9.58684 9.38582 9.33049 9.66712C9.07413 9.94842 8.93012 10.33 8.93012 10.7278C8.93012 11.1256 9.07413 11.5071 9.33049 11.7884C9.58684 12.0697 9.93453 12.2278 10.2971 12.2278C10.6596 12.2278 11.0073 12.0697 11.2636 11.7884C11.52 11.5071 11.664 11.1256 11.664 10.7278C11.664 10.33 11.52 9.94842 11.2636 9.66712C11.0073 9.38582 10.6596 9.22778 10.2971 9.22778Z" fill="white"/>
    <rect x="0.251503" y="0.238655" width="20.0911" height="20.9781" rx="10.0456" stroke="white" stroke-width="0.47731"/>
</svg>
