<svg width="32" height="34" viewBox="0 0 32 34" fill="none" xmlns="http://www.w3.org/2000/svg">
    <path d="M12.3878 11.2759C12.3876 11.6891 12.2379 12.0852 11.9715 12.3772C11.7052 12.6692 11.344 12.8331 10.9675 12.8329C10.591 12.8327 10.23 12.6684 9.96393 12.3761C9.69784 12.0838 9.54846 11.6875 9.54865 11.2744C9.54883 10.8612 9.69858 10.4651 9.96493 10.1731C10.2313 9.88112 10.5924 9.7172 10.9689 9.71741C11.3454 9.71761 11.7064 9.88193 11.9725 10.1742C12.2386 10.4665 12.388 10.8628 12.3878 11.2759ZM12.4304 13.9865H9.59123V23.738H12.4304V13.9865ZM16.9163 13.9865H14.0913V23.738H16.8879V18.6208C16.8879 15.7701 20.2736 15.5053 20.2736 18.6208V23.738H23.0773V17.5615C23.0773 12.7558 18.0662 12.935 16.8879 15.295L16.9163 13.9865Z" fill="black"/>
    <rect x="0.998172" y="0.42322" width="30.63" height="32.609" rx="15.315" stroke="black" stroke-width="0.743535"/>
</svg>
