<svg width="22" height="22" viewBox="0 0 22 22" fill="none" xmlns="http://www.w3.org/2000/svg">
    <path d="M15.8412 7.47778C15.4903 7.65278 15.1121 7.76778 14.7203 7.82278C15.1212 7.55778 15.4311 7.13778 15.5769 6.63278C15.1987 6.88278 14.7795 7.05778 14.3375 7.15778C13.9776 6.72778 13.4718 6.47778 12.8977 6.47778C11.8269 6.47778 10.9521 7.43778 10.9521 8.62278C10.9521 8.79278 10.9703 8.95778 11.0022 9.11278C9.38007 9.02278 7.93566 8.16778 6.97424 6.87278C6.80565 7.18778 6.70996 7.55778 6.70996 7.94778C6.70996 8.69278 7.0517 9.35278 7.58025 9.72778C7.25674 9.72778 6.95601 9.62778 6.69174 9.47778V9.49278C6.69174 10.5328 7.3661 11.4028 8.25917 11.5978C7.97244 11.6839 7.67143 11.6959 7.37977 11.6328C7.50352 12.059 7.7459 12.432 8.07282 12.6992C8.39974 12.9665 8.79476 13.1146 9.20236 13.1228C8.51143 13.723 7.65498 14.0474 6.77375 14.0428C6.61883 14.0428 6.46391 14.0328 6.30899 14.0128C7.17472 14.6228 8.20449 14.9778 9.30716 14.9778C12.8977 14.9778 14.8706 11.7078 14.8706 8.87278C14.8706 8.77778 14.8706 8.68778 14.8661 8.59278C15.2488 8.29278 15.5769 7.91278 15.8412 7.47778Z" fill="white"/>
    <rect x="0.819923" y="0.51136" width="20.5103" height="20.4327" rx="10.2164" stroke="white" stroke-width="0.47731"/>
</svg>
