<svg width="34" height="34" viewBox="0 0 34 34" fill="none" xmlns="http://www.w3.org/2000/svg">
<path d="M24.3176 11.665C23.7711 11.9376 23.1819 12.1168 22.5715 12.2024C23.1961 11.7896 23.6788 11.1354 23.9059 10.3487C23.3168 10.7381 22.6638 11.0107 21.9753 11.1665C21.4145 10.4967 20.6267 10.1072 19.7323 10.1072C18.0643 10.1072 16.7015 11.6027 16.7015 13.4486C16.7015 13.7135 16.7299 13.9705 16.7796 14.2119C14.2527 14.0717 12.0027 12.7399 10.505 10.7226C10.2424 11.2132 10.0933 11.7896 10.0933 12.3971C10.0933 13.5577 10.6257 14.5858 11.449 15.17C10.9451 15.17 10.4766 15.0142 10.0649 14.7805V14.8039C10.0649 16.424 11.1154 17.7792 12.5066 18.083C12.06 18.2171 11.5911 18.2358 11.1367 18.1375C11.3295 18.8015 11.7071 19.3825 12.2163 19.7988C12.7256 20.2151 13.341 20.4459 13.9759 20.4586C12.8996 21.3936 11.5654 21.899 10.1927 21.8917C9.95138 21.8917 9.71005 21.8761 9.46872 21.845C10.8173 22.7952 12.4215 23.3482 14.1392 23.3482C19.7323 23.3482 22.8057 18.2543 22.8057 13.8381C22.8057 13.6901 22.8057 13.5499 22.7986 13.4019C23.3949 12.9346 23.9059 12.3426 24.3176 11.665Z" fill="black"/>
<rect x="0.918215" y="0.813052" width="31.9502" height="31.8294" rx="15.9147" stroke="black" stroke-width="0.743535"/>
</svg>
