<svg width="21" height="22" viewBox="0 0 21 22" fill="none" xmlns="http://www.w3.org/2000/svg">
    <path d="M8.1192 7.22804C8.11908 7.49325 8.02295 7.74756 7.85196 7.935C7.68098 8.12244 7.44914 8.22767 7.20744 8.22754C6.96575 8.22741 6.73401 8.12192 6.56319 7.93429C6.39238 7.74666 6.29648 7.49225 6.2966 7.22704C6.29672 6.96182 6.39285 6.70752 6.56384 6.52008C6.73482 6.33264 6.96666 6.22741 7.20835 6.22754C7.45005 6.22767 7.68179 6.33316 7.85261 6.52079C8.02342 6.70842 8.11932 6.96282 8.1192 7.22804ZM8.14654 8.96804H6.32394V15.228H8.14654V8.96804ZM11.0262 8.96804H9.21276V15.228H11.008V11.943C11.008 10.113 13.1815 9.94304 13.1815 11.943V15.228H14.9813V11.263C14.9813 8.17804 11.7644 8.29304 11.008 9.80804L11.0262 8.96804Z" fill="white"/>
    <rect x="0.807533" y="0.261116" width="19.6628" height="20.9332" rx="9.8314" stroke="white" stroke-width="0.47731"/>
</svg>
